<svg width="55" height="55" viewBox="0 0 55 55" fill="none" xmlns="http://www.w3.org/2000/svg">
<path fill-rule="evenodd" clip-rule="evenodd" d="M54.9123 27.4512C54.9114 22.2044 53.4071 17.0677 50.5776 12.6493C47.748 8.23086 43.7117 4.71568 38.9464 2.51993C34.1811 0.324179 28.8865 -0.460193 23.6893 0.259643C18.4921 0.979479 13.61 3.1734 9.62097 6.58166C5.63189 9.98993 2.70292 14.4698 1.18078 19.491C-0.341356 24.5121 -0.392914 29.8643 1.03222 34.9138C2.45735 39.9634 5.29948 44.4989 9.22216 47.9834C13.1448 51.4678 17.9838 53.7554 23.1661 54.5752V35.3902H16.193V27.4512H23.1661V21.401C23.1661 14.521 27.2661 10.7176 33.537 10.7176C35.5963 10.7463 37.6508 10.9257 39.684 11.2545V18.0119H36.2201C32.8114 18.0119 31.745 20.1275 31.745 22.3019V27.4524H39.3592L38.1432 35.3914H31.745V54.5776C38.2038 53.5547 44.0857 50.2606 48.3326 45.288C52.5795 40.3154 54.9126 33.9905 54.9123 27.4512V27.4512Z" fill="white"/>
</svg>
