<svg width="51" height="51" viewBox="0 0 51 51" fill="none" xmlns="http://www.w3.org/2000/svg">
<path d="M35.896 4.22272C38.6937 4.23108 41.3744 5.34617 43.3527 7.32446C45.331 9.30276 46.4461 11.9835 46.4544 14.7812V35.8959C46.4461 38.6937 45.331 41.3744 43.3527 43.3527C41.3744 45.331 38.6937 46.4461 35.896 46.4544H14.7812C11.9835 46.4461 9.30276 45.331 7.32446 43.3527C5.34617 41.3744 4.23107 38.6937 4.22272 35.8959V14.7812C4.23107 11.9835 5.34617 9.30279 7.32446 7.32449C9.30276 5.3462 11.9835 4.2311 14.7812 4.22275H35.8959L35.896 4.22272ZM35.8959 3.05176e-05H14.7812C10.8645 0.0114409 7.11146 1.5724 4.34192 4.34195C1.57237 7.1115 0.0114077 10.8645 0 14.7812V35.8959C0.0114077 39.8126 1.57237 43.5657 4.34192 46.3352C7.11146 49.1048 10.8645 50.6657 14.7812 50.6772H35.8959C39.8127 50.6658 43.5657 49.1048 46.3353 46.3353C49.1048 43.5657 50.6658 39.8127 50.6772 35.8959V14.7812C50.6658 10.8645 49.1049 7.11147 46.3353 4.34192C43.5657 1.57236 39.8127 0.0113972 35.896 0L35.8959 3.05176e-05Z" fill="#8F8F8F"/>
<path d="M39.0633 14.7812C38.2256 14.7794 37.423 14.4452 36.8316 13.852C36.2403 13.2587 35.9086 12.4549 35.9095 11.6173C35.9104 10.7797 36.2438 9.97665 36.8364 9.38467C37.429 8.79269 38.2324 8.46021 39.0701 8.46021C39.9077 8.46021 40.7111 8.79269 41.3037 9.38467C41.8963 9.97665 42.2297 10.7797 42.2306 11.6173C42.2315 12.4549 41.8998 13.2587 41.3085 13.852C40.7172 14.4452 39.9145 14.7794 39.0769 14.7812C39.0723 14.7812 39.0678 14.7812 39.0633 14.7812Z" fill="#8F8F8F"/>
<path d="M25.3386 16.892C27.0092 16.892 28.6423 17.3874 30.0313 18.3155C31.4203 19.2436 32.5029 20.5628 33.1422 22.1062C33.7815 23.6496 33.9488 25.3479 33.6229 26.9864C33.297 28.6249 32.4925 30.1299 31.3113 31.3112C30.13 32.4925 28.6249 33.2969 26.9865 33.6228C25.348 33.9487 23.6497 33.7815 22.1063 33.1422C20.5629 32.5029 19.2437 31.4203 18.3156 30.0312C17.3874 28.6422 16.892 27.0092 16.892 25.3386C16.892 24.2294 17.1105 23.131 17.535 22.1062C17.9595 21.0814 18.5817 20.1503 19.366 19.3659C20.1503 18.5816 21.0815 17.9595 22.1063 17.535C23.1311 17.1105 24.2294 16.892 25.3386 16.892V16.892ZM25.3386 12.6693C22.8329 12.6693 20.3834 13.4123 18.2999 14.8044C16.2165 16.1966 14.5926 18.1752 13.6337 20.4902C12.6748 22.8052 12.4239 25.3526 12.9128 27.8102C13.4016 30.2678 14.6082 32.5253 16.3801 34.2971C18.1519 36.069 20.4093 37.2756 22.8669 37.7644C25.3246 38.2533 27.8719 38.0024 30.187 37.0435C32.502 36.0846 34.4806 34.4607 35.8727 32.3773C37.2649 30.2938 38.0079 27.8443 38.0079 25.3386C38.0079 23.6748 37.6802 22.0273 37.0435 20.4902C36.4068 18.9531 35.4736 17.5565 34.2972 16.38C33.1207 15.2035 31.7241 14.2703 30.187 13.6336C28.6498 12.9969 27.0024 12.6693 25.3386 12.6693V12.6693Z" fill="#8F8F8F"/>
</svg>
