<svg width="75" height="75" viewBox="0 0 75 75" fill="none" xmlns="http://www.w3.org/2000/svg">
<path d="M58.2895 12.7117L16.8637 12.6389C16.3312 12.6121 15.7986 12.6907 15.2965 12.8703C14.7945 13.0499 14.3329 13.3269 13.9381 13.6854C13.5434 14.0439 13.2234 14.4768 12.9964 14.9593C12.7695 15.4418 12.6401 15.9644 12.6156 16.4971L12.5425 58.0146C12.5692 59.1317 13.023 60.196 13.8106 60.9886C14.5981 61.7812 15.6595 62.2417 16.7763 62.2756L58.1899 62.3484C59.2797 62.3077 60.3096 61.8391 61.0564 61.0442C61.8032 60.2493 62.2067 59.1922 62.1794 58.102L62.2525 16.5844C62.2622 16.0655 62.1655 15.5501 61.9686 15.0699C61.7717 14.5897 61.4786 14.1549 61.1074 13.7921C60.7362 13.4294 60.2947 13.1465 59.8101 12.9607C59.3255 12.7749 58.8081 12.6901 58.2895 12.7117ZM27.9359 54.0331L20.825 54.0206L20.864 31.9112L27.9749 31.9237L27.9359 54.0331ZM24.6713 28.5564L24.6202 28.5563C23.5971 28.5477 22.6191 28.134 21.9005 27.4057C21.1819 26.6774 20.7813 25.694 20.7865 24.6708C20.7916 23.6477 21.2021 22.6683 21.928 21.9473C22.654 21.2263 23.6361 20.8225 24.6592 20.8242C25.6824 20.826 26.6631 21.2333 27.3865 21.9568C28.1099 22.6804 28.517 23.6612 28.5186 24.6843C28.5202 25.7074 28.1161 26.6895 27.395 27.4153C26.6738 28.1411 25.6944 28.5514 24.6713 28.5564V28.5564ZM53.9243 54.0789L46.8134 54.0663L46.8347 41.9774C46.8398 39.0811 45.8084 37.1005 43.2357 37.096C42.431 37.101 41.6477 37.3555 40.9938 37.8244C40.3399 38.2934 39.8476 38.9537 39.5848 39.7143C39.3945 40.2758 39.31 40.8678 39.3358 41.4601L39.3136 54.0531L32.2026 54.0406L32.2416 31.9313L39.3525 31.9438L39.3471 35.0206C39.9966 33.9018 40.9354 32.9787 42.065 32.3482C43.1946 31.7177 44.4732 31.4031 45.7664 31.4376C50.4342 31.4458 53.9599 34.5289 53.9482 41.1622L53.9243 54.0789Z" fill="#8F8F8F"/>
</svg>
