<svg width="56" height="56" viewBox="0 0 56 56" fill="none" xmlns="http://www.w3.org/2000/svg">
<path d="M27.5416 0C21.2175 0.000542085 15.0861 2.17732 10.1774 6.16473C5.26864 10.1522 1.88159 15.7073 0.585072 21.8971C-0.711447 28.087 0.161581 34.5344 3.05748 40.1566C5.95339 45.7788 10.6957 50.2332 16.4881 52.7716C16.3724 50.6531 16.5336 48.5286 16.9676 46.4518C17.4963 44.2141 20.5087 31.4392 20.5087 31.4392C19.9071 30.0679 19.6052 28.584 19.6234 27.0866C19.6234 23.0046 21.9841 19.9554 24.935 19.9554C27.4432 19.9554 28.6482 21.8365 28.6482 24.0866C28.6482 26.6071 27.0375 30.3695 26.2137 33.8614C26.0496 34.5083 26.0398 35.1847 26.1852 35.836C26.3305 36.4874 26.627 37.0955 27.0506 37.6112C27.4742 38.1269 28.013 38.5358 28.6237 38.805C29.2344 39.0741 29.8998 39.196 30.5663 39.1607C35.7795 39.1607 39.2959 32.4597 39.2959 24.5169C39.2959 18.4799 35.2262 13.9675 27.8367 13.9675C19.4882 13.9675 14.275 20.2012 14.275 27.1604C14.193 29.1228 14.8413 31.0459 16.0947 32.5581C16.3145 32.7396 16.4711 32.9862 16.5419 33.2624C16.6126 33.5386 16.5937 33.8302 16.4881 34.095C16.3528 34.5991 16.0578 35.8164 15.9225 36.3082C15.899 36.4569 15.8403 36.5978 15.7513 36.7193C15.6624 36.8408 15.5457 36.9393 15.4111 37.0066C15.2764 37.0739 15.1276 37.1082 14.977 37.1064C14.8265 37.1047 14.6786 37.0671 14.5455 36.9967C10.697 35.4229 8.90191 31.2179 8.90191 26.4719C8.90191 18.652 15.5045 9.27069 28.5867 9.27069C39.0992 9.27069 46.0215 16.8815 46.0215 25.0456C46.0215 35.8532 40.0091 43.919 31.1565 43.919C28.181 43.919 25.3899 42.3083 24.4309 40.4886C24.4309 40.4886 22.8325 46.833 22.4882 48.0625C21.8523 50.1516 20.9207 52.139 19.7218 53.9643C23.5099 55.0831 27.4942 55.3742 31.4047 54.8179C35.3152 54.2615 39.0603 52.8707 42.386 50.7397C45.7117 48.6088 48.5402 45.7875 50.6797 42.4673C52.8193 39.1472 54.2197 35.4057 54.7862 31.4966C55.3526 27.5876 55.0718 23.6025 53.9627 19.8116C52.8536 16.0206 50.9423 12.5126 48.3583 9.52524C45.7742 6.53792 42.5779 4.14122 38.9863 2.49774C35.3946 0.854263 31.4915 0.00243554 27.5416 0V0Z" fill="#8F8F8F"/>
</svg>
