<svg width="67" height="65" viewBox="0 0 67 65" fill="none" xmlns="http://www.w3.org/2000/svg">
<path d="M6.46692 12.9338C10.0385 12.9338 12.9338 10.0385 12.9338 6.46689C12.9338 2.89533 10.0385 0 6.46692 0C2.89535 0 0 2.89533 0 6.46689C0 10.0385 2.89535 12.9338 6.46692 12.9338Z" fill="white"/>
<path d="M6.46692 38.7071C10.0385 38.7071 12.9338 35.8118 12.9338 32.2402C12.9338 28.6686 10.0385 25.7733 6.46692 25.7733C2.89535 25.7733 0 28.6686 0 32.2402C0 35.8118 2.89535 38.7071 6.46692 38.7071Z" fill="white"/>
<path d="M6.46692 64.4804C10.0385 64.4804 12.9338 61.5851 12.9338 58.0135C12.9338 54.4419 10.0385 51.5466 6.46692 51.5466C2.89535 51.5466 0 54.4419 0 58.0135C0 61.5851 2.89535 64.4804 6.46692 64.4804Z" fill="white"/>
<path d="M33.4669 12.9338C37.0385 12.9338 39.9338 10.0385 39.9338 6.46689C39.9338 2.89533 37.0385 0 33.4669 0C29.8954 0 27 2.89533 27 6.46689C27 10.0385 29.8954 12.9338 33.4669 12.9338Z" fill="white"/>
<path d="M33.4669 38.7071C37.0385 38.7071 39.9338 35.8118 39.9338 32.2402C39.9338 28.6686 37.0385 25.7733 33.4669 25.7733C29.8954 25.7733 27 28.6686 27 32.2402C27 35.8118 29.8954 38.7071 33.4669 38.7071Z" fill="white"/>
<path d="M33.4669 64.4804C37.0385 64.4804 39.9338 61.5851 39.9338 58.0135C39.9338 54.4419 37.0385 51.5466 33.4669 51.5466C29.8954 51.5466 27 54.4419 27 58.0135C27 61.5851 29.8954 64.4804 33.4669 64.4804Z" fill="white"/>
<path d="M60.4669 12.9338C64.0385 12.9338 66.9338 10.0385 66.9338 6.46689C66.9338 2.89533 64.0385 0 60.4669 0C56.8954 0 54 2.89533 54 6.46689C54 10.0385 56.8954 12.9338 60.4669 12.9338Z" fill="white"/>
<path d="M60.4669 38.7071C64.0385 38.7071 66.9338 35.8118 66.9338 32.2402C66.9338 28.6686 64.0385 25.7733 60.4669 25.7733C56.8954 25.7733 54 28.6686 54 32.2402C54 35.8118 56.8954 38.7071 60.4669 38.7071Z" fill="white"/>
<path d="M60.4669 64.4804C64.0385 64.4804 66.9338 61.5851 66.9338 58.0135C66.9338 54.4419 64.0385 51.5466 60.4669 51.5466C56.8954 51.5466 54 54.4419 54 58.0135C54 61.5851 56.8954 64.4804 60.4669 64.4804Z" fill="white"/>
</svg>
