<svg width="50" height="42" viewBox="0 0 50 42" fill="none" xmlns="http://www.w3.org/2000/svg">
<path d="M5 7L0 6C0 6 4.2 10.7 5 11C5.07464 11.9986 5.07464 13.0014 5 14C14.6 55.2 50 37 50 37C37.1 37.3 36 32 36 32C43.5 30.9 45 26 45 26C44.3271 26.355 43.5469 26.4492 42.8088 26.2647C42.0707 26.0802 41.4267 25.6299 41 25C49.1 22.9 48 15 48 15C46.5563 16.0424 44.869 16.6966 43.1 16.9C44 15.8 51.6 6.7 47 2C47 2 41.4 12 26.7 12.9L25.7 12.7C25.87 11.9797 25.9373 11.2391 25.9 10.5C25.9 7.71523 24.7937 5.04451 22.8246 3.07538C20.8555 1.10625 18.1847 0 15.4 0C8.39996 0 6.89996 4 6.89996 4L1.89996 1C1.99996 1 2.5 6 5 7Z" fill="white"/>
</svg>
