<svg width="681" height="394" viewBox="0 0 681 394" fill="none" xmlns="http://www.w3.org/2000/svg">
<path d="M119 203.5L5.5 26.5H72.5C74.1667 29.1666 77 33.6667 81 40C85 46.3333 89.5 53.6666 94.5 62C99.5 70 104.833 78.6666 110.5 88C116.167 97 121.5 105.667 126.5 114C131.5 122 135.833 129.167 139.5 135.5C143.5 141.833 146.333 146.333 148 149C148.333 149.667 149.5 152 151.5 156C153.5 159.667 155 163 156 166C157 163 158.5 159.667 160.5 156C162.5 152 163.667 149.667 164 149C165.667 146.333 168.333 141.833 172 135.5C176 129.167 180.333 122 185 114C190 105.667 195.167 97 200.5 88C205.833 78.6666 210.833 70 215.5 62C220.5 53.6666 224.833 46.3333 228.5 40C232.5 33.6667 235.333 29.1666 237 26.5L304 26.5C302 29.5 298.167 35.6666 292.5 45C286.833 54 280 64.6666 272 77C264.333 89.3333 256.167 102.5 247.5 116.5C238.833 130.5 230.5 143.667 222.5 156C214.833 168.333 208 179.167 202 188.5C196.333 197.5 192.667 203.5 191 206.5L309 389H241L167 270C166.333 269 165.333 267.5 164 265.5C162.667 263.5 161.333 261.333 160 259C158.667 256.333 157.333 253.833 156 251.5C154.667 249.167 153.667 247.333 153 246C152 249 150.667 252.167 149 255.5C147.333 258.833 146.333 260.667 146 261C143.333 265.333 138.167 273.667 130.5 286C123.167 298 115.333 311 107 325C99 339 91.1667 352.167 83.5 364.5C76.1667 376.5 71.1667 384.667 68.5 389H0.5L119 203.5ZM329.117 100C329.117 92 331.951 85.3333 337.617 80C343.617 74.6666 349.951 72 356.617 72C363.284 72 369.451 74.6666 375.117 80C380.784 85.3333 383.617 92 383.617 100C383.617 108 380.784 114.667 375.117 120C369.451 125 363.284 127.5 356.617 127.5C349.951 127.5 343.617 125 337.617 120C331.951 114.667 329.117 108 329.117 100ZM377.117 389H334.617L334.617 180H377.117L377.117 389ZM423.156 284.5C423.156 268.167 425.823 253.333 431.156 240C436.823 226.333 444.49 214.667 454.156 205C463.823 195.333 475.156 187.833 488.156 182.5C501.49 177.167 515.823 174.5 531.156 174.5C541.49 174.5 550.656 175.833 558.656 178.5C566.99 180.833 573.99 183.833 579.656 187.5C585.656 190.833 590.656 194.667 594.656 199C598.656 203.333 601.656 207.167 603.656 210.5V0.499985H646.656V389H603.656V373.5C603.656 371.5 603.823 369.333 604.156 367C604.49 364.333 604.656 362.167 604.656 360.5C601.323 364.5 597.323 368.5 592.656 372.5C588.323 376.167 583.156 379.667 577.156 383C571.156 386.333 564.156 389 556.156 391C548.49 393 539.656 394 529.656 394C512.99 394 497.99 391.167 484.656 385.5C471.656 379.5 460.49 371.667 451.156 362C442.156 352 435.156 340.333 430.156 327C425.49 313.667 423.156 299.5 423.156 284.5ZM466.156 284C466.156 293.667 467.823 302.667 471.156 311C474.823 319.333 479.656 326.5 485.656 332.5C491.656 338.5 498.823 343.333 507.156 347C515.49 350.333 524.656 352 534.656 352C544.656 352 553.823 350.333 562.156 347C570.823 343.333 578.156 338.5 584.156 332.5C590.49 326.167 595.323 319 598.656 311C601.99 302.667 603.656 293.667 603.656 284C603.656 274.333 601.99 265.5 598.656 257.5C595.323 249.167 590.49 242 584.156 236C578.156 230 570.823 225.333 562.156 222C553.823 218.333 544.656 216.5 534.656 216.5C524.656 216.5 515.49 218.333 507.156 222C498.823 225.333 491.656 230 485.656 236C479.656 242 474.823 249.167 471.156 257.5C467.823 265.5 466.156 274.333 466.156 284ZM706.687 0.499985H749.187V230.5C756.521 213.833 766.854 200.5 780.187 190.5C793.521 180.167 810.687 174.833 831.687 174.5C853.021 174.167 870.021 179.833 882.687 191.5C895.687 203.167 902.521 218.333 903.187 237V389H860.187V256.5C859.521 245.833 855.854 236.833 849.187 229.5C842.521 221.833 832.021 217.667 817.687 217C807.687 217 798.521 218.833 790.187 222.5C781.854 225.833 774.687 230.5 768.687 236.5C762.687 242.5 757.854 249.667 754.187 258C750.854 266.333 749.187 275.5 749.187 285.5V389H706.687V0.499985ZM1155.58 393.5H1119.58L1114.58 335.5C1106.92 352.5 1096.08 366.5 1082.08 377.5C1068.42 388.5 1050.92 394 1029.58 394C1008.25 394 991.249 388.333 978.582 377C966.249 365.333 959.749 350.167 959.082 331.5V180H1001.58V312.5C1002.25 322.833 1005.92 331.667 1012.58 339C1019.58 346.333 1030.25 350.5 1044.58 351.5C1054.58 351.5 1063.75 349.833 1072.08 346.5C1080.42 342.833 1087.58 338 1093.58 332C1099.58 326 1104.25 318.833 1107.58 310.5C1110.92 302.167 1112.58 293 1112.58 283V180H1155.58V393.5Z" fill="black" fill-opacity="0.18"/>
</svg>
