<svg width="429" height="396" viewBox="0 0 429 396" fill="none" xmlns="http://www.w3.org/2000/svg">
<path d="M249 341.5C249 335.149 243.851 330 237.5 330C231.149 330 226 335.149 226 341.5C226 347.851 231.149 353 237.5 353C243.851 353 249 347.851 249 341.5Z" fill="#2F2F2F" fill-opacity="0.59"/>
<path d="M295 341.5C295 335.149 289.851 330 283.5 330C277.149 330 272 335.149 272 341.5C272 347.851 277.149 353 283.5 353C289.851 353 295 347.851 295 341.5Z" fill="#2F2B2B" fill-opacity="0.59"/>
<path d="M341 341.5C341 335.149 335.851 330 329.5 330C323.149 330 318 335.149 318 341.5C318 347.851 323.149 353 329.5 353C335.851 353 341 347.851 341 341.5Z" fill="#2F2B2B" fill-opacity="0.59"/>
<path d="M387 341.5C387 335.149 381.851 330 375.5 330C369.149 330 364 335.149 364 341.5C364 347.851 369.149 353 375.5 353C381.851 353 387 347.851 387 341.5Z" fill="#2F2B2B" fill-opacity="0.59"/>
<path d="M249 293.5C249 287.149 243.851 282 237.5 282C231.149 282 226 287.149 226 293.5C226 299.851 231.149 305 237.5 305C243.851 305 249 299.851 249 293.5Z" fill="#4D4848" fill-opacity="0.59"/>
<path d="M295 293.5C295 287.149 289.851 282 283.5 282C277.149 282 272 287.149 272 293.5C272 299.851 277.149 305 283.5 305C289.851 305 295 299.851 295 293.5Z" fill="#4D4848" fill-opacity="0.59"/>
<path d="M341 293.5C341 287.149 335.851 282 329.5 282C323.149 282 318 287.149 318 293.5C318 299.851 323.149 305 329.5 305C335.851 305 341 299.851 341 293.5Z" fill="#2F2B2B" fill-opacity="0.59"/>
<path d="M387 293.5C387 287.149 381.851 282 375.5 282C369.149 282 364 287.149 364 293.5C364 299.851 369.149 305 375.5 305C381.851 305 387 299.851 387 293.5Z" fill="#2F2B2B" fill-opacity="0.59"/>
<path d="M249 245.5C249 239.149 243.851 234 237.5 234C231.149 234 226 239.149 226 245.5C226 251.851 231.149 257 237.5 257C243.851 257 249 251.851 249 245.5Z" fill="#848484" fill-opacity="0.59"/>
<path d="M295 245.5C295 239.149 289.851 234 283.5 234C277.149 234 272 239.149 272 245.5C272 251.851 277.149 257 283.5 257C289.851 257 295 251.851 295 245.5Z" fill="#848484" fill-opacity="0.59"/>
<path d="M341 245.5C341 239.149 335.851 234 329.5 234C323.149 234 318 239.149 318 245.5C318 251.851 323.149 257 329.5 257C335.851 257 341 251.851 341 245.5Z" fill="#4D4848" fill-opacity="0.59"/>
<path d="M387 245.5C387 239.149 381.851 234 375.5 234C369.149 234 364 239.149 364 245.5C364 251.851 369.149 257 375.5 257C381.851 257 387 251.851 387 245.5Z" fill="#2F2B2B" fill-opacity="0.59"/>
<path d="M249 57.0001C249 63.6275 243.851 69 237.5 69C231.149 69 226 63.6275 226 57.0001C226 50.3726 231.149 45 237.5 45C243.851 45 249 50.3726 249 57.0001Z" fill="#2F2F2F" fill-opacity="0.59"/>
<path d="M295 57.0001C295 63.6275 289.851 69 283.5 69C277.149 69 272 63.6275 272 57.0001C272 50.3726 277.149 45 283.5 45C289.851 45 295 50.3726 295 57.0001Z" fill="#2F2B2B" fill-opacity="0.59"/>
<path d="M340 57.0001C340 63.6275 334.851 69 328.5 69C322.149 69 317 63.6275 317 57.0001C317 50.3726 322.149 45 328.5 45C334.851 45 340 50.3726 340 57.0001Z" fill="#2F2B2B" fill-opacity="0.59"/>
<path d="M387 57.0001C387 63.6275 381.627 69 375 69C368.373 69 363 63.6275 363 57.0001C363 50.3726 368.373 45 375 45C381.627 45 387 50.3726 387 57.0001Z" fill="#2F2B2B" fill-opacity="0.59"/>
<path d="M249 104.5C249 110.851 243.851 116 237.5 116C231.149 116 226 110.851 226 104.5C226 98.1488 231.149 93 237.5 93C243.851 93 249 98.1488 249 104.5Z" fill="#4D4848" fill-opacity="0.59"/>
<path d="M295 104.5C295 110.851 289.851 116 283.5 116C277.149 116 272 110.851 272 104.5C272 98.1488 277.149 93 283.5 93C289.851 93 295 98.1488 295 104.5Z" fill="#4D4848" fill-opacity="0.59"/>
<path d="M340 104.5C340 110.851 334.851 116 328.5 116C322.149 116 317 110.851 317 104.5C317 98.1488 322.149 93 328.5 93C334.851 93 340 98.1488 340 104.5Z" fill="#2F2B2B" fill-opacity="0.59"/>
<path d="M387 104.5C387 110.851 381.627 116 375 116C368.373 116 363 110.851 363 104.5C363 98.1488 368.373 93 375 93C381.627 93 387 98.1488 387 104.5Z" fill="#2F2B2B" fill-opacity="0.59"/>
<path d="M249 151.5C249 157.851 243.851 163 237.5 163C231.149 163 226 157.851 226 151.5C226 145.149 231.149 140 237.5 140C243.851 140 249 145.149 249 151.5Z" fill="#848484" fill-opacity="0.59"/>
<path d="M295 151.5C295 157.851 289.851 163 283.5 163C277.149 163 272 157.851 272 151.5C272 145.149 277.149 140 283.5 140C289.851 140 295 145.149 295 151.5Z" fill="#848484" fill-opacity="0.59"/>
<path d="M340 151.5C340 157.851 334.851 163 328.5 163C322.149 163 317 157.851 317 151.5C317 145.149 322.149 140 328.5 140C334.851 140 340 145.149 340 151.5Z" fill="#4D4848" fill-opacity="0.59"/>
<path d="M387 151.5C387 157.851 381.627 163 375 163C368.373 163 363 157.851 363 151.5C363 145.149 368.373 140 375 140C381.627 140 387 145.149 387 151.5Z" fill="#2F2B2B" fill-opacity="0.59"/>
<path d="M249 197.5C249 191.149 243.851 186 237.5 186C231.149 186 226 191.149 226 197.5C226 203.851 231.149 209 237.5 209C243.851 209 249 203.851 249 197.5Z" fill="#B8B8B8" fill-opacity="0.59"/>
<path d="M295 197.5C295 191.149 289.851 186 283.5 186C277.149 186 272 191.149 272 197.5C272 203.851 277.149 209 283.5 209C289.851 209 295 203.851 295 197.5Z" fill="#848484" fill-opacity="0.59"/>
<path d="M341 197.5C341 191.149 335.851 186 329.5 186C323.149 186 318 191.149 318 197.5C318 203.851 323.149 209 329.5 209C335.851 209 341 203.851 341 197.5Z" fill="#4D4848" fill-opacity="0.59"/>
<path d="M387 197.5C387 191.149 381.851 186 375.5 186C369.149 186 364 191.149 364 197.5C364 203.851 369.149 209 375.5 209C381.851 209 387 203.851 387 197.5Z" fill="#2F2B2B" fill-opacity="0.59"/>
<path d="M65 341.5C65 335.149 59.8513 330 53.5 330C47.1487 330 42 335.149 42 341.5C42 347.851 47.1487 353 53.5 353C59.8513 353 65 347.851 65 341.5Z" fill="#2F2F2F" fill-opacity="0.59"/>
<path d="M111 341.5C111 335.149 105.851 330 99.5 330C93.1487 330 88 335.149 88 341.5C88 347.851 93.1487 353 99.5 353C105.851 353 111 347.851 111 341.5Z" fill="#2F2B2B" fill-opacity="0.59"/>
<path d="M157 341.5C157 335.149 151.627 330 145 330C138.373 330 133 335.149 133 341.5C133 347.851 138.373 353 145 353C151.627 353 157 347.851 157 341.5Z" fill="#2F2B2B" fill-opacity="0.59"/>
<path d="M202 341.5C202 335.149 196.851 330 190.5 330C184.149 330 179 335.149 179 341.5C179 347.851 184.149 353 190.5 353C196.851 353 202 347.851 202 341.5Z" fill="#2F2B2B" fill-opacity="0.59"/>
<path d="M65 293.5C65 287.149 59.8513 282 53.5 282C47.1487 282 42 287.149 42 293.5C42 299.851 47.1487 305 53.5 305C59.8513 305 65 299.851 65 293.5Z" fill="#2F2B2B"/>
<path d="M111 293.5C111 287.149 105.851 282 99.5 282C93.1487 282 88 287.149 88 293.5C88 299.851 93.1487 305 99.5 305C105.851 305 111 299.851 111 293.5Z" fill="#2F2B2B" fill-opacity="0.59"/>
<path d="M157 293.5C157 287.149 151.627 282 145 282C138.373 282 133 287.149 133 293.5C133 299.851 138.373 305 145 305C151.627 305 157 299.851 157 293.5Z" fill="#4D4848" fill-opacity="0.59"/>
<path d="M202 293.5C202 287.149 196.851 282 190.5 282C184.149 282 179 287.149 179 293.5C179 299.851 184.149 305 190.5 305C196.851 305 202 299.851 202 293.5Z" fill="#4D4848" fill-opacity="0.59"/>
<path d="M65 245.5C65 239.149 59.8513 234 53.5 234C47.1487 234 42 239.149 42 245.5C42 251.851 47.1487 257 53.5 257C59.8513 257 65 251.851 65 245.5Z" fill="#2F2B2B" fill-opacity="0.59"/>
<path d="M111 245.5C111 239.149 105.851 234 99.5 234C93.1487 234 88 239.149 88 245.5C88 251.851 93.1487 257 99.5 257C105.851 257 111 251.851 111 245.5Z" fill="#4D4848" fill-opacity="0.59"/>
<path d="M157 245.5C157 239.149 151.627 234 145 234C138.373 234 133 239.149 133 245.5C133 251.851 138.373 257 145 257C151.627 257 157 251.851 157 245.5Z" fill="#848484" fill-opacity="0.59"/>
<path d="M202 245.5C202 239.149 196.851 234 190.5 234C184.149 234 179 239.149 179 245.5C179 251.851 184.149 257 190.5 257C196.851 257 202 251.851 202 245.5Z" fill="#848484" fill-opacity="0.59"/>
<path d="M64 57.0001C64 63.6275 58.8513 69 52.5 69C46.1487 69 41 63.6275 41 57.0001C41 50.3726 46.1487 45 52.5 45C58.8513 45 64 50.3726 64 57.0001Z" fill="#2F2F2F" fill-opacity="0.59"/>
<path d="M111 57.0001C111 63.6275 105.627 69 99 69C92.3726 69 87 63.6275 87 57.0001C87 50.3726 92.3726 45 99 45C105.627 45 111 50.3726 111 57.0001Z" fill="#2F2B2B" fill-opacity="0.59"/>
<path d="M155 57.0001C155 63.6275 149.851 69 143.5 69C137.149 69 132 63.6275 132 57.0001C132 50.3726 137.149 45 143.5 45C149.851 45 155 50.3726 155 57.0001Z" fill="#2F2B2B" fill-opacity="0.59"/>
<path d="M202 57.0001C202 63.6275 196.627 69 190 69C183.373 69 178 63.6275 178 57.0001C178 50.3726 183.373 45 190 45C196.627 45 202 50.3726 202 57.0001Z" fill="#2F2B2B" fill-opacity="0.59"/>
<path d="M248 12.0001C248 18.6275 242.851 24 236.5 24C230.149 24 225 18.6275 225 12.0001C225 5.37264 230.149 -1.8758e-07 236.5 -4.18972e-07C242.851 -6.50365e-07 248 5.37264 248 12.0001Z" fill="#393535" fill-opacity="0.07"/>
<path d="M294 12.0001C294 18.6275 288.851 24 282.5 24C276.149 24 271 18.6275 271 12.0001C271 5.37264 276.149 -1.8758e-07 282.5 -4.18972e-07C288.851 -6.50364e-07 294 5.37264 294 12.0001Z" fill="#393535" fill-opacity="0.07"/>
<path d="M339 12.0001C339 18.6275 333.851 24 327.5 24C321.149 24 316 18.6275 316 12.0001C316 5.37264 321.149 -1.8758e-07 327.5 -4.18972e-07C333.851 -6.50365e-07 339 5.37264 339 12.0001Z" fill="#393535" fill-opacity="0.07"/>
<path d="M385 12.0001C385 18.6275 379.851 24 373.5 24C367.149 24 362 18.6275 362 12.0001C362 5.37264 367.149 -1.8758e-07 373.5 -4.18972e-07C379.851 -6.50364e-07 385 5.37264 385 12.0001Z" fill="#393535" fill-opacity="0.07"/>
<path d="M63 12.0001C63 18.6275 57.8513 24 51.5 24C45.1487 24 40 18.6275 40 12.0001C40 5.37264 45.1487 -1.8758e-07 51.5 -4.18972e-07C57.8513 -6.50365e-07 63 5.37264 63 12.0001Z" fill="#393535" fill-opacity="0.07"/>
<path d="M109 12.0001C109 18.6275 103.851 24 97.5 24C91.1487 24 86 18.6275 86 12.0001C86 5.37264 91.1487 -1.8758e-07 97.5 -4.18972e-07C103.851 -6.50364e-07 109 5.37264 109 12.0001Z" fill="#393535" fill-opacity="0.07"/>
<path d="M155 12.0001C155 18.6275 149.627 24 143 24C136.373 24 131 18.6275 131 12.0001C131 5.37264 136.373 -1.95736e-07 143 -4.37189e-07C149.627 -6.78641e-07 155 5.37264 155 12.0001Z" fill="#393535" fill-opacity="0.07"/>
<path d="M201 12.0001C201 18.6275 195.627 24 189 24C182.373 24 177 18.6275 177 12.0001C177 5.37264 182.373 -1.95736e-07 189 -4.37188e-07C195.627 -6.78641e-07 201 5.37264 201 12.0001Z" fill="#393535" fill-opacity="0.07"/>
<path d="M417.5 214C411.149 214 406 208.627 406 202C406 195.373 411.149 190 417.5 190C423.851 190 429 195.373 429 202C429 208.627 423.851 214 417.5 214Z" fill="#393535" fill-opacity="0.07"/>
<path d="M417.5 260C411.149 260 406 254.851 406 248.5C406 242.149 411.149 237 417.5 237C423.851 237 429 242.149 429 248.5C429 254.851 423.851 260 417.5 260Z" fill="#393535" fill-opacity="0.07"/>
<path d="M417.5 306C411.149 306 406 300.851 406 294.5C406 288.149 411.149 283 417.5 283C423.851 283 429 288.149 429 294.5C429 300.851 423.851 306 417.5 306Z" fill="#393535" fill-opacity="0.07"/>
<path d="M417.5 353C411.149 353 406 347.627 406 341C406 334.373 411.149 329 417.5 329C423.851 329 429 334.373 429 341C429 347.627 423.851 353 417.5 353Z" fill="#393535" fill-opacity="0.07"/>
<path d="M417.5 396C411.149 396 406 390.627 406 384C406 377.373 411.149 372 417.5 372C423.851 372 429 377.373 429 384C429 390.627 423.851 396 417.5 396Z" fill="#393535" fill-opacity="0.07"/>
<path d="M417.5 25C411.149 25 406 19.8513 406 13.5C406 7.14873 411.149 2 417.5 2C423.851 2 429 7.14873 429 13.5C429 19.8513 423.851 25 417.5 25Z" fill="#393535" fill-opacity="0.07"/>
<path d="M417.5 72C411.149 72 406 66.8513 406 60.5C406 54.1487 411.149 49 417.5 49C423.851 49 429 54.1487 429 60.5C429 66.8513 423.851 72 417.5 72Z" fill="#393535" fill-opacity="0.07"/>
<path d="M417.5 119C411.149 119 406 113.404 406 106.5C406 99.5964 411.149 94 417.5 94C423.851 94 429 99.5964 429 106.5C429 113.404 423.851 119 417.5 119Z" fill="#393535" fill-opacity="0.07"/>
<path d="M417.5 166C411.149 166 406 160.404 406 153.5C406 146.596 411.149 141 417.5 141C423.851 141 429 146.596 429 153.5C429 160.404 423.851 166 417.5 166Z" fill="#393535" fill-opacity="0.07"/>
<path d="M11.4999 211C5.14867 211 0 205.404 0 198.5C0 191.596 5.14867 186 11.4999 186C17.8512 186 23 191.596 23 198.5C23 205.404 17.8512 211 11.4999 211Z" fill="#393535" fill-opacity="0.07"/>
<path d="M11.4999 259C5.14867 259 0 253.627 0 247C0 240.373 5.14867 235 11.4999 235C17.8512 235 23 240.373 23 247C23 253.627 17.8512 259 11.4999 259Z" fill="#393535" fill-opacity="0.07"/>
<path d="M11.4999 305C5.14867 305 0 299.627 0 293C0 286.373 5.14867 281 11.4999 281C17.8512 281 23 286.373 23 293C23 299.627 17.8512 305 11.4999 305Z" fill="#393535" fill-opacity="0.07"/>
<path d="M11.4999 352C5.14867 352 0 346.851 0 340.5C0 334.149 5.14867 329 11.4999 329C17.8512 329 23 334.149 23 340.5C23 346.851 17.8512 352 11.4999 352Z" fill="#393535" fill-opacity="0.07"/>
<path d="M11.4999 396C5.14867 396 0 390.627 0 384C0 377.373 5.14867 372 11.4999 372C17.8512 372 23 377.373 23 384C23 390.627 17.8512 396 11.4999 396Z" fill="#393535" fill-opacity="0.07"/>
<path d="M11.4999 68C5.14867 68 0 62.8513 0 56.5C0 50.1487 5.14867 45 11.4999 45C17.8512 45 23 50.1487 23 56.5C23 62.8513 17.8512 68 11.4999 68Z" fill="#393535" fill-opacity="0.07"/>
<path d="M11.4999 25C5.14867 25 0 19.8513 0 13.5C0 7.14872 5.14867 2 11.4999 2C17.8512 2 23 7.14872 23 13.5C23 19.8513 17.8512 25 11.4999 25Z" fill="#393535" fill-opacity="0.07"/>
<path d="M11.4999 115C5.14867 115 0 109.627 0 103C0 96.3726 5.14867 91 11.4999 91C17.8512 91 23 96.3726 23 103C23 109.627 17.8512 115 11.4999 115Z" fill="#393535" fill-opacity="0.07"/>
<path d="M11.4999 163C5.14867 163 0 157.404 0 150.5C0 143.596 5.14867 138 11.4999 138C17.8512 138 23 143.596 23 150.5C23 157.404 17.8512 163 11.4999 163Z" fill="#393535" fill-opacity="0.07"/>
<path d="M250 383.5C250 389.851 244.851 395 238.5 395C232.149 395 227 389.851 227 383.5C227 377.149 232.149 372 238.5 372C244.851 372 250 377.149 250 383.5Z" fill="#393535" fill-opacity="0.07"/>
<path d="M296 383.5C296 389.851 290.627 395 284 395C277.373 395 272 389.851 272 383.5C272 377.149 277.373 372 284 372C290.627 372 296 377.149 296 383.5Z" fill="#393535" fill-opacity="0.07"/>
<path d="M341 383.5C341 389.851 335.851 395 329.5 395C323.149 395 318 389.851 318 383.5C318 377.149 323.149 372 329.5 372C335.851 372 341 377.149 341 383.5Z" fill="#393535" fill-opacity="0.07"/>
<path d="M387 383.5C387 389.851 381.851 395 375.5 395C369.149 395 364 389.851 364 383.5C364 377.149 369.149 372 375.5 372C381.851 372 387 377.149 387 383.5Z" fill="#393535" fill-opacity="0.07"/>
<path d="M65 383.5C65 389.851 59.8513 395 53.5 395C47.1487 395 42 389.851 42 383.5C42 377.149 47.1487 372 53.5 372C59.8513 372 65 377.149 65 383.5Z" fill="#393535" fill-opacity="0.07"/>
<path d="M111 383.5C111 389.851 105.851 395 99.5 395C93.1487 395 88 389.851 88 383.5C88 377.149 93.1487 372 99.5 372C105.851 372 111 377.149 111 383.5Z" fill="#393535" fill-opacity="0.07"/>
<path d="M157 383.5C157 389.851 151.627 395 145 395C138.373 395 133 389.851 133 383.5C133 377.149 138.373 372 145 372C151.627 372 157 377.149 157 383.5Z" fill="#393535" fill-opacity="0.07"/>
<path d="M203 383.5C203 389.851 197.627 395 191 395C184.373 395 179 389.851 179 383.5C179 377.149 184.373 372 191 372C197.627 372 203 377.149 203 383.5Z" fill="#393535" fill-opacity="0.07"/>
<path d="M64 104.5C64 110.851 58.8513 116 52.5 116C46.1487 116 41 110.851 41 104.5C41 98.1488 46.1487 93 52.5 93C58.8513 93 64 98.1488 64 104.5Z" fill="#2F2B2B"/>
<path d="M111 104.5C111 110.851 105.627 116 99 116C92.3726 116 87 110.851 87 104.5C87 98.1488 92.3726 93 99 93C105.627 93 111 98.1488 111 104.5Z" fill="#2F2B2B" fill-opacity="0.59"/>
<path d="M155 104.5C155 110.851 149.851 116 143.5 116C137.149 116 132 110.851 132 104.5C132 98.1488 137.149 93 143.5 93C149.851 93 155 98.1488 155 104.5Z" fill="#4D4848" fill-opacity="0.59"/>
<path d="M202 104.5C202 110.851 196.627 116 190 116C183.373 116 178 110.851 178 104.5C178 98.1488 183.373 93 190 93C196.627 93 202 98.1488 202 104.5Z" fill="#4D4848" fill-opacity="0.59"/>
<path d="M64 151.5C64 157.851 58.8513 163 52.5 163C46.1487 163 41 157.851 41 151.5C41 145.149 46.1487 140 52.5 140C58.8513 140 64 145.149 64 151.5Z" fill="#2F2B2B" fill-opacity="0.59"/>
<path d="M111 151.5C111 157.851 105.627 163 99 163C92.3726 163 87 157.851 87 151.5C87 145.149 92.3726 140 99 140C105.627 140 111 145.149 111 151.5Z" fill="#4D4848" fill-opacity="0.59"/>
<path d="M155 151.5C155 157.851 149.851 163 143.5 163C137.149 163 132 157.851 132 151.5C132 145.149 137.149 140 143.5 140C149.851 140 155 145.149 155 151.5Z" fill="#848484" fill-opacity="0.59"/>
<path d="M202 151.5C202 157.851 196.627 163 190 163C183.373 163 178 157.851 178 151.5C178 145.149 183.373 140 190 140C196.627 140 202 145.149 202 151.5Z" fill="#848484" fill-opacity="0.59"/>
<path d="M65 197.5C65 191.149 59.8513 186 53.5 186C47.1487 186 42 191.149 42 197.5C42 203.851 47.1487 209 53.5 209C59.8513 209 65 203.851 65 197.5Z" fill="#2F2B2B" fill-opacity="0.59"/>
<path d="M111 197.5C111 191.149 105.851 186 99.5 186C93.1487 186 88 191.149 88 197.5C88 203.851 93.1487 209 99.5 209C105.851 209 111 203.851 111 197.5Z" fill="#4D4848" fill-opacity="0.59"/>
<path d="M157 197.5C157 191.149 151.627 186 145 186C138.373 186 133 191.149 133 197.5C133 203.851 138.373 209 145 209C151.627 209 157 203.851 157 197.5Z" fill="#848484" fill-opacity="0.59"/>
<path d="M202 197.5C202 191.149 196.851 186 190.5 186C184.149 186 179 191.149 179 197.5C179 203.851 184.149 209 190.5 209C196.851 209 202 203.851 202 197.5Z" fill="#D5D5D5" fill-opacity="0.59"/>
</svg>
