<svg width="500" height="470" viewBox="0 0 500 470" fill="none" xmlns="http://www.w3.org/2000/svg">
<path d="M500 33.5548C500 24.6555 496.708 16.1207 490.847 9.82797C484.987 3.53523 477.038 0 468.75 0H31.25C22.962 0 15.0134 3.53523 9.15289 9.82797C3.29238 16.1207 0 24.6555 0 33.5548C0 42.454 3.29238 50.9888 9.15289 57.2816C15.0134 63.5743 22.962 67.1095 31.25 67.1095H468.75C477.038 67.1095 484.987 63.5743 490.847 57.2816C496.708 50.9888 500 42.454 500 33.5548Z" fill="white"/>
<path d="M500 436.212C500 427.313 496.708 418.778 490.847 412.485C484.987 406.193 477.038 402.657 468.75 402.657H31.25C22.962 402.657 15.0134 406.193 9.15289 412.485C3.29238 418.778 0 427.313 0 436.212C0 445.112 3.29238 453.646 9.15289 459.939C15.0134 466.232 22.962 469.767 31.25 469.767H468.75C477.038 469.767 484.987 466.232 490.847 459.939C496.708 453.646 500 445.112 500 436.212Z" fill="white"/>
<path d="M468.75 201.329C477.038 201.329 484.987 204.864 490.847 211.157C496.708 217.449 500 225.984 500 234.883C500 243.783 496.708 252.318 490.847 258.61C484.987 264.903 477.038 268.438 468.75 268.438H218.75C210.462 268.438 202.513 264.903 196.653 258.61C190.792 252.318 187.5 243.783 187.5 234.883C187.5 225.984 190.792 217.449 196.653 211.157C202.513 204.864 210.462 201.329 218.75 201.329H468.75Z" fill="white"/>
</svg>
