<svg width="58" height="58" viewBox="0 0 58 58" fill="none" xmlns="http://www.w3.org/2000/svg">
<g filter="url(#filter0_d)">
<circle cx="29" cy="25" r="25" fill="white"/>
</g>
<path d="M25.88 25.58L21.34 18.5H24.02C24.0867 18.6067 24.2 18.7867 24.36 19.04C24.52 19.2933 24.7 19.5867 24.9 19.92C25.1 20.24 25.3133 20.5867 25.54 20.96C25.7667 21.32 25.98 21.6667 26.18 22C26.38 22.32 26.5533 22.6067 26.7 22.86C26.86 23.1133 26.9733 23.2933 27.04 23.4C27.0533 23.4267 27.1 23.52 27.18 23.68C27.26 23.8267 27.32 23.96 27.36 24.08C27.4 23.96 27.46 23.8267 27.54 23.68C27.62 23.52 27.6667 23.4267 27.68 23.4C27.7467 23.2933 27.8533 23.1133 28 22.86C28.16 22.6067 28.3333 22.32 28.52 22C28.72 21.6667 28.9267 21.32 29.14 20.96C29.3533 20.5867 29.5533 20.24 29.74 19.92C29.94 19.5867 30.1133 19.2933 30.26 19.04C30.42 18.7867 30.5333 18.6067 30.6 18.5H33.28C33.2 18.62 33.0467 18.8667 32.82 19.24C32.5933 19.6 32.32 20.0267 32 20.52C31.6933 21.0133 31.3667 21.54 31.02 22.1C30.6733 22.66 30.34 23.1867 30.02 23.68C29.7133 24.1733 29.44 24.6067 29.2 24.98C28.9733 25.34 28.8267 25.58 28.76 25.7L33.48 33H30.76L27.8 28.24C27.7733 28.2 27.7333 28.14 27.68 28.06C27.6267 27.98 27.5733 27.8933 27.52 27.8C27.4667 27.6933 27.4133 27.5933 27.36 27.5C27.3067 27.4067 27.2667 27.3333 27.24 27.28C27.2 27.4 27.1467 27.5267 27.08 27.66C27.0133 27.7933 26.9733 27.8667 26.96 27.88C26.8533 28.0533 26.6467 28.3867 26.34 28.88C26.0467 29.36 25.7333 29.88 25.4 30.44C25.08 31 24.7667 31.5267 24.46 32.02C24.1667 32.5 23.9667 32.8267 23.86 33H21.14L25.88 25.58ZM34.2847 21.44C34.2847 21.12 34.398 20.8533 34.6247 20.64C34.8647 20.4267 35.118 20.32 35.3847 20.32C35.6514 20.32 35.898 20.4267 36.1247 20.64C36.3514 20.8533 36.4647 21.12 36.4647 21.44C36.4647 21.76 36.3514 22.0267 36.1247 22.24C35.898 22.44 35.6514 22.54 35.3847 22.54C35.118 22.54 34.8647 22.44 34.6247 22.24C34.398 22.0267 34.2847 21.76 34.2847 21.44ZM36.2047 33H34.5047V24.64H36.2047V33Z" fill="#27201F"/>
<defs>
<filter id="filter0_d" x="0" y="0" width="58" height="58" filterUnits="userSpaceOnUse" color-interpolation-filters="sRGB">
<feFlood flood-opacity="0" result="BackgroundImageFix"/>
<feColorMatrix in="SourceAlpha" type="matrix" values="0 0 0 0 0 0 0 0 0 0 0 0 0 0 0 0 0 0 127 0"/>
<feOffset dy="4"/>
<feGaussianBlur stdDeviation="2"/>
<feColorMatrix type="matrix" values="0 0 0 0 0 0 0 0 0 0 0 0 0 0 0 0 0 0 0.25 0"/>
<feBlend mode="normal" in2="BackgroundImageFix" result="effect1_dropShadow"/>
<feBlend mode="normal" in="SourceGraphic" in2="effect1_dropShadow" result="shape"/>
</filter>
</defs>
</svg>
